<svg xmlns="http://www.w3.org/2000/svg" viewBox="0 0 1100 500" font-family="Inter, -apple-system, system-ui, sans-serif">
  <rect width="1100" height="500" fill="#fafafa"/>
  <text x="550" y="40" text-anchor="middle" font-size="20" font-weight="700" fill="#1a1a2e">MCP vs No-MCP: Headline Metrics</text>
  <text x="550" y="62" text-anchor="middle" font-size="12" fill="#6b7280">8,496-file production codebase · 60 tasks · paired comparison</text>

  <!-- Total Tokens -->
  <text x="180" y="110" text-anchor="middle" font-size="13" font-weight="600" fill="#4b5563">Total Tokens</text>
  <rect x="100" y="125" width="60" height="240" rx="4" fill="#dc2626" opacity="0.9"/>
  <rect x="200" y="355" width="60" height="10" rx="4" fill="#0f3460"/>
  <text x="130" y="120" text-anchor="middle" font-size="11" fill="#dc2626" font-weight="600">328,272</text>
  <text x="230" y="352" text-anchor="middle" font-size="11" fill="#0f3460" font-weight="600">14,407</text>
  <text x="130" y="390" text-anchor="middle" font-size="10" fill="#6b7280">No MCP</text>
  <text x="230" y="390" text-anchor="middle" font-size="10" fill="#6b7280">MCP</text>
  <rect x="95" y="405" width="170" height="28" rx="6" fill="#ecfdf5"/>
  <text x="180" y="424" text-anchor="middle" font-size="12" font-weight="700" fill="#059669">↓ 95.6% reduction</text>

  <!-- Median Latency -->
  <text x="450" y="110" text-anchor="middle" font-size="13" font-weight="600" fill="#4b5563">Median Latency (ms)</text>
  <rect x="370" y="145" width="60" height="220" rx="4" fill="#dc2626" opacity="0.9"/>
  <rect x="470" y="360" width="60" height="5" rx="4" fill="#0f3460"/>
  <text x="400" y="138" text-anchor="middle" font-size="11" fill="#dc2626" font-weight="600">448.35ms</text>
  <text x="500" y="356" text-anchor="middle" font-size="11" fill="#0f3460" font-weight="600">5.21ms</text>
  <text x="400" y="390" text-anchor="middle" font-size="10" fill="#6b7280">No MCP</text>
  <text x="500" y="390" text-anchor="middle" font-size="10" fill="#6b7280">MCP</text>
  <rect x="365" y="405" width="170" height="28" rx="6" fill="#ecfdf5"/>
  <text x="450" y="424" text-anchor="middle" font-size="12" font-weight="700" fill="#059669">86× faster</text>

  <!-- Tool Calls -->
  <text x="720" y="110" text-anchor="middle" font-size="13" font-weight="600" fill="#4b5563">Mean Tool Calls</text>
  <rect x="640" y="215" width="60" height="150" rx="4" fill="#dc2626" opacity="0.9"/>
  <rect x="740" y="333" width="60" height="32" rx="4" fill="#0f3460"/>
  <text x="670" y="208" text-anchor="middle" font-size="11" fill="#dc2626" font-weight="600">4.7</text>
  <text x="770" y="326" text-anchor="middle" font-size="11" fill="#0f3460" font-weight="600">1.0</text>
  <text x="670" y="390" text-anchor="middle" font-size="10" fill="#6b7280">No MCP</text>
  <text x="770" y="390" text-anchor="middle" font-size="10" fill="#6b7280">MCP</text>
  <rect x="635" y="405" width="170" height="28" rx="6" fill="#ecfdf5"/>
  <text x="720" y="424" text-anchor="middle" font-size="12" font-weight="700" fill="#059669">↓ 79% fewer</text>

  <!-- Files Read -->
  <text x="980" y="110" text-anchor="middle" font-size="13" font-weight="600" fill="#4b5563">Files Read / Task</text>
  <rect x="900" y="240" width="60" height="125" rx="4" fill="#dc2626" opacity="0.9"/>
  <rect x="1000" y="363" width="60" height="2" rx="1" fill="#0f3460"/>
  <text x="930" y="233" text-anchor="middle" font-size="11" fill="#dc2626" font-weight="600">3.7</text>
  <text x="1030" y="358" text-anchor="middle" font-size="11" fill="#0f3460" font-weight="600">0</text>
  <text x="930" y="390" text-anchor="middle" font-size="10" fill="#6b7280">No MCP</text>
  <text x="1030" y="390" text-anchor="middle" font-size="10" fill="#6b7280">MCP</text>
  <rect x="895" y="405" width="170" height="28" rx="6" fill="#ecfdf5"/>
  <text x="980" y="424" text-anchor="middle" font-size="12" font-weight="700" fill="#059669">100% eliminated</text>

  <!-- Legend -->
  <rect x="420" y="460" width="12" height="12" rx="2" fill="#dc2626"/>
  <text x="438" y="471" font-size="11" fill="#4b5563">No MCP (Control)</text>
  <rect x="560" y="460" width="12" height="12" rx="2" fill="#0f3460"/>
  <text x="578" y="471" font-size="11" fill="#4b5563">With MCP (Treatment)</text>
</svg>
