<svg xmlns="http://www.w3.org/2000/svg" viewBox="0 0 1200 680" font-family="Georgia, 'Times New Roman', serif">
  <defs>
    <filter id="shadow" x="-4%" y="-4%" width="108%" height="108%">
      <feDropShadow dx="0" dy="1.5" stdDeviation="2.5" flood-opacity="0.10"/>
    </filter>
    <marker id="arrow" markerWidth="8" markerHeight="6" refX="8" refY="3" orient="auto">
      <polygon points="0 0, 8 3, 0 6" fill="#444444"/>
    </marker>
  </defs>

  <rect width="1200" height="680" fill="#ffffff"/>
  <text x="600" y="40" text-anchor="middle" font-size="24" font-weight="700" fill="#111111">Contextro System Overview</text>
  <text x="600" y="64" text-anchor="middle" font-size="13" fill="#555555">One local process that answers code-discovery questions directly</text>

  <rect x="70" y="210" width="180" height="92" rx="4" fill="#ffffff" stroke="#444444" filter="url(#shadow)"/>
  <text x="160" y="247" text-anchor="middle" font-size="18" font-weight="700" fill="#111111">MCP Client</text>
  <text x="160" y="271" text-anchor="middle" font-size="12" fill="#555555">Claude, Cursor, Copilot</text>

  <rect x="340" y="210" width="170" height="92" rx="4" fill="#ffffff" stroke="#444444" filter="url(#shadow)"/>
  <text x="425" y="247" text-anchor="middle" font-size="18" font-weight="700" fill="#111111">MCP Layer</text>
  <text x="425" y="271" text-anchor="middle" font-size="12" fill="#555555">stdio or HTTP transport</text>

  <rect x="590" y="170" width="220" height="170" rx="4" fill="#ffffff" stroke="#111111" stroke-width="1.3" filter="url(#shadow)"/>
  <text x="700" y="214" text-anchor="middle" font-size="21" font-weight="700" fill="#111111">Contextro</text>
  <text x="700" y="238" text-anchor="middle" font-size="13" fill="#555555">30 tools</text>
  <text x="700" y="260" text-anchor="middle" font-size="13" fill="#555555">Local-first execution</text>
  <text x="700" y="282" text-anchor="middle" font-size="13" fill="#555555">No cloud dependency</text>
  <text x="700" y="304" text-anchor="middle" font-size="13" fill="#555555">No API key required</text>

  <line x1="250" y1="256" x2="340" y2="256" stroke="#444444" stroke-width="1.6" marker-end="url(#arrow)"/>
  <line x1="510" y1="256" x2="590" y2="256" stroke="#444444" stroke-width="1.6" marker-end="url(#arrow)"/>

  <rect x="90" y="470" width="180" height="92" rx="4" fill="#ffffff" stroke="#777777" filter="url(#shadow)"/>
  <text x="180" y="506" text-anchor="middle" font-size="17" font-weight="700" fill="#111111">Vector Search</text>
  <text x="180" y="529" text-anchor="middle" font-size="12" fill="#555555">LanceDB embeddings</text>

  <rect x="300" y="470" width="180" height="92" rx="4" fill="#ffffff" stroke="#777777" filter="url(#shadow)"/>
  <text x="390" y="506" text-anchor="middle" font-size="17" font-weight="700" fill="#111111">Lexical Search</text>
  <text x="390" y="529" text-anchor="middle" font-size="12" fill="#555555">BM25 exact match</text>

  <rect x="510" y="470" width="180" height="92" rx="4" fill="#ffffff" stroke="#777777" filter="url(#shadow)"/>
  <text x="600" y="506" text-anchor="middle" font-size="17" font-weight="700" fill="#111111">Graph Engine</text>
  <text x="600" y="529" text-anchor="middle" font-size="12" fill="#555555">rustworkx relations</text>

  <rect x="720" y="470" width="180" height="92" rx="4" fill="#ffffff" stroke="#777777" filter="url(#shadow)"/>
  <text x="810" y="506" text-anchor="middle" font-size="17" font-weight="700" fill="#111111">Git Search</text>
  <text x="810" y="529" text-anchor="middle" font-size="12" fill="#555555">semantic history lookup</text>

  <rect x="930" y="470" width="180" height="92" rx="4" fill="#ffffff" stroke="#777777" filter="url(#shadow)"/>
  <text x="1020" y="506" text-anchor="middle" font-size="17" font-weight="700" fill="#111111">Memory Store</text>
  <text x="1020" y="529" text-anchor="middle" font-size="12" fill="#555555">cross-session context</text>

  <line x1="650" y1="340" x2="180" y2="470" stroke="#888888" stroke-width="1.2" stroke-dasharray="5,4"/>
  <line x1="675" y1="340" x2="390" y2="470" stroke="#888888" stroke-width="1.2" stroke-dasharray="5,4"/>
  <line x1="700" y1="340" x2="600" y2="470" stroke="#888888" stroke-width="1.2" stroke-dasharray="5,4"/>
  <line x1="725" y1="340" x2="810" y2="470" stroke="#888888" stroke-width="1.2" stroke-dasharray="5,4"/>
  <line x1="750" y1="340" x2="1020" y2="470" stroke="#888888" stroke-width="1.2" stroke-dasharray="5,4"/>

  <rect x="835" y="180" width="290" height="122" rx="4" fill="#ffffff" stroke="#777777" filter="url(#shadow)"/>
  <text x="980" y="210" text-anchor="middle" font-size="16" font-weight="700" fill="#111111">Parsing and file services</text>
  <text x="980" y="236" text-anchor="middle" font-size="12" fill="#555555">tree-sitter and ast-grep for syntax structure</text>
  <text x="980" y="258" text-anchor="middle" font-size="12" fill="#555555">Rust extension for file discovery and hashing</text>
  <text x="980" y="280" text-anchor="middle" font-size="12" fill="#555555">incremental checks for repository freshness</text>

  <text x="600" y="628" text-anchor="middle" font-size="12" fill="#555555">The server returns structured answers so the MCP client can ask focused questions instead of opening files until it finds the right one.</text>
</svg>
