<svg xmlns="http://www.w3.org/2000/svg" viewBox="0 0 1200 640" font-family="Inter, -apple-system, system-ui, sans-serif">
  <defs>
    <filter id="shadow" x="-4%" y="-4%" width="108%" height="108%">
      <feDropShadow dx="0" dy="2" stdDeviation="4" flood-opacity="0.08"/>
    </filter>
    <marker id="arrow" markerWidth="10" markerHeight="10" refX="8" refY="5" orient="auto">
      <path d="M0,0 L10,5 L0,10 Z" fill="#0f3460"/>
    </marker>
  </defs>

  <rect width="1200" height="640" fill="#fafafa"/>
  <text x="600" y="42" text-anchor="middle" font-size="20" font-weight="700" fill="#1a1a2e">Deterministic paired-study design</text>
  <text x="600" y="64" text-anchor="middle" font-size="12" fill="#6b7280">Shared repository snapshot, matched task inventory, and direct comparison of workflow cost</text>

  <rect x="250" y="102" width="700" height="94" rx="18" fill="#ffffff" stroke="#e5e7eb" filter="url(#shadow)"/>
  <text x="600" y="138" text-anchor="middle" font-size="16" font-weight="700" fill="#1a1a2e">Shared repository snapshot</text>
  <text x="600" y="162" text-anchor="middle" font-size="12" fill="#374151">platform • 10,889 tracked files • 8,498 indexed source files • 11,534 symbols • 11,534 chunks</text>

  <rect x="470" y="222" width="260" height="60" rx="30" fill="#e8eef8"/>
  <text x="600" y="246" text-anchor="middle" font-size="12" font-weight="700" fill="#0f3460">1,000 deterministic tasks</text>
  <text x="600" y="265" text-anchor="middle" font-size="11" fill="#0f3460">300 symbol + 300 search + 200 batch lookup + 200 document symbols</text>

  <line x1="600" y1="196" x2="600" y2="222" stroke="#0f3460" stroke-width="3" marker-end="url(#arrow)"/>
  <line x1="600" y1="282" x2="310" y2="326" stroke="#0f3460" stroke-width="3" marker-end="url(#arrow)"/>
  <line x1="600" y1="282" x2="890" y2="326" stroke="#0f3460" stroke-width="3" marker-end="url(#arrow)"/>

  <rect x="70" y="330" width="480" height="190" rx="18" fill="#ffffff" stroke="#dc2626" stroke-width="2" filter="url(#shadow)"/>
  <text x="310" y="365" text-anchor="middle" font-size="17" font-weight="700" fill="#dc2626">Stronger local baseline</text>
  <text x="310" y="392" text-anchor="middle" font-size="12" fill="#374151">Exact <tspan font-family="ui-monospace, SFMono-Regular, Menlo, Consolas, monospace">git grep</tspan> and bounded file reads</text>
  <text x="310" y="417" text-anchor="middle" font-size="12" fill="#374151">Multi-step repository traversal per task</text>
  <text x="310" y="442" text-anchor="middle" font-size="12" fill="#374151">999 / 1000 tasks correct</text>
  <rect x="118" y="464" width="150" height="34" rx="17" fill="#fee2e2"/>
  <text x="193" y="485" text-anchor="middle" font-size="12" font-weight="700" fill="#dc2626">1,068,884 tokens</text>
  <rect x="285" y="464" width="116" height="34" rx="17" fill="#fee2e2"/>
  <text x="343" y="485" text-anchor="middle" font-size="12" font-weight="700" fill="#dc2626">3.098 calls</text>
  <rect x="418" y="464" width="90" height="34" rx="17" fill="#fee2e2"/>
  <text x="463" y="485" text-anchor="middle" font-size="12" font-weight="700" fill="#dc2626">p50 203 ms</text>

  <rect x="650" y="330" width="480" height="190" rx="18" fill="#ffffff" stroke="#0f3460" stroke-width="2" filter="url(#shadow)"/>
  <text x="890" y="365" text-anchor="middle" font-size="17" font-weight="700" fill="#0f3460">Contextro treatment arm</text>
  <text x="890" y="392" text-anchor="middle" font-size="12" fill="#374151">Direct Rust handler calls against a fresh local index</text>
  <text x="890" y="417" text-anchor="middle" font-size="12" fill="#374151">Single tool invocation per task</text>
  <text x="890" y="442" text-anchor="middle" font-size="12" fill="#374151">1000 / 1000 tasks correct</text>
  <rect x="698" y="464" width="130" height="34" rx="17" fill="#e8eef8"/>
  <text x="763" y="485" text-anchor="middle" font-size="12" font-weight="700" fill="#0f3460">94,034 tokens</text>
  <rect x="845" y="464" width="92" height="34" rx="17" fill="#e8eef8"/>
  <text x="891" y="485" text-anchor="middle" font-size="12" font-weight="700" fill="#0f3460">1.000 call</text>
  <rect x="954" y="464" width="128" height="34" rx="17" fill="#e8eef8"/>
  <text x="1018" y="485" text-anchor="middle" font-size="12" font-weight="700" fill="#0f3460">p50 0.037 ms</text>

  <rect x="420" y="548" width="360" height="52" rx="26" fill="#ecfdf5" stroke="#059669"/>
  <text x="600" y="570" text-anchor="middle" font-size="12" font-weight="700" fill="#059669">Observed paired advantage</text>
  <text x="600" y="590" text-anchor="middle" font-size="12" fill="#059669">91.2% lower token volume • 67.7% fewer interaction steps • one fewer baseline miss</text>
</svg>
